<svg xmlns="http://www.w3.org/2000/svg" viewBox="0 0 100 100" width="100" height="100">
  <!-- Shield Outer Shape -->
  <path d="M50 5 L90 20 L90 50 C90 75 70 90 50 95 C30 90 10 75 10 50 L10 20 Z" fill="#0A2540"/>
  
  <!-- Shield Inner Border -->
  <path d="M50 10 L85 23 L85 50 C85 72 67 85 50 90 C33 85 15 72 15 50 L15 23 Z" fill="#2563EB"/>
  
  <!-- Hood Silhouette -->
  <ellipse cx="50" cy="35" rx="15" ry="12" fill="#60A5FA"/>
  <path d="M35 38 Q50 20 65 38 Q65 55 50 60 Q35 55 35 38" fill="#0A2540"/>
  
  <!-- Face shadow -->
  <ellipse cx="50" cy="48" rx="10" ry="7" fill="rgba(10,37,64,0.8)"/>
  
  <!-- Circuit lines - left -->
  <circle cx="25" cy="40" r="3" fill="#60A5FA"/>
  <circle cx="22" cy="50" r="2" fill="#60A5FA"/>
  <circle cx="25" cy="58" r="2.5" fill="#60A5FA"/>
  <path d="M25 43 L25 47 M22 50 L25 50 L25 55.5" stroke="#60A5FA" stroke-width="1.5" fill="none"/>
  
  <!-- Network cubes - right -->
  <rect x="68" y="35" width="8" height="8" rx="1" fill="#60A5FA" opacity="0.8" transform="rotate(10 72 39)"/>
  <rect x="72" y="43" width="6" height="6" rx="1" fill="#60A5FA" opacity="0.6" transform="rotate(-5 75 46)"/>
  <rect x="65" y="48" width="7" height="7" rx="1" fill="#60A5FA" opacity="0.7" transform="rotate(5 68.5 51.5)"/>
  
  <!-- Lock body -->
  <rect x="38" y="62" width="24" height="18" rx="3" fill="#60A5FA"/>
  
  <!-- Lock shackle -->
  <path d="M43 62 L43 56 Q43 52 50 52 Q57 52 57 56 L57 62" stroke="#60A5FA" stroke-width="3" fill="none" stroke-linecap="round"/>
  
  <!-- Checkmark inside lock -->
  <path d="M44 70 L48 74 L56 66" stroke="#0A2540" stroke-width="3" fill="none" stroke-linecap="round" stroke-linejoin="round"/>
</svg>
